HIERARCHY
ROOT Hips
{
	OFFSET	0.00	0.00	0.00
	CHANNELS 6 Xposition Yposition Zposition Zrotation Xrotation Yrotation
	JOINT LeftUpLeg
	{
		OFFSET	 0.126116	-0.014019	-0.065224
		CHANNELS 3 Zrotation Xrotation Yrotation
		JOINT LeftLeg
		{
			OFFSET	 0.000000	 0.000000	 0.569914
			CHANNELS 3 Zrotation Xrotation Yrotation
			JOINT LeftFoot
			{
				OFFSET	 0.000000	 0.000000	 0.544423
				CHANNELS 3 Zrotation Xrotation Yrotation
				JOINT LeftToeBase
				{
					OFFSET	 0.000000	 0.000000	 0.207117
					CHANNELS 3 Zrotation Xrotation Yrotation
					End Site
					{
						OFFSET	 0.000000	 0.000000	 0.207117
					}
				}
			}
		}
	}
	JOINT RightUpLeg
	{
		OFFSET	-0.124023	-0.008373	-0.065224
		CHANNELS 3 Zrotation Xrotation Yrotation
		JOINT RightLeg
		{
			OFFSET	 0.000000	 0.000000	 0.570047
			CHANNELS 3 Zrotation Xrotation Yrotation
			JOINT RightFoot
			{
				OFFSET	 0.000000	 0.000000	 0.544354
				CHANNELS 3 Zrotation Xrotation Yrotation
				JOINT RightToeBase
				{
					OFFSET	 0.000000	 0.000000	 0.207540
					CHANNELS 3 Zrotation Xrotation Yrotation
					End Site
					{
						OFFSET	 0.000000	 0.000000	 0.207540
					}
				}
			}
		}
	}
	JOINT Spine
	{
		OFFSET	 0.000184	-0.007763	 0.117403
		CHANNELS 3 Zrotation Xrotation Yrotation
		JOINT Spine1
		{
			OFFSET	 0.000000	 0.000000	 0.137269
			CHANNELS 3 Zrotation Xrotation Yrotation
			JOINT Spine2
			{
				OFFSET	 0.000000	 0.000000	 0.156879
				CHANNELS 3 Zrotation Xrotation Yrotation
				JOINT LeftShoulder
				{
					OFFSET	 0.080501	-0.002496	 0.160144
					CHANNELS 3 Zrotation Xrotation Yrotation
					JOINT LeftArm
					{
						OFFSET	 0.000000	 0.000000	 0.164363
						CHANNELS 3 Zrotation Xrotation Yrotation
						JOINT LeftForeArm
						{
							OFFSET	 0.000000	 0.000000	 0.364576
							CHANNELS 3 Zrotation Xrotation Yrotation
							JOINT LeftHand
							{
								OFFSET	 0.000000	 0.000000	 0.360812
								CHANNELS 3 Zrotation Xrotation Yrotation
								JOINT LeftHandIndex1
								{
									OFFSET	 0.000000	 0.000000	 0.086006
									CHANNELS 3 Zrotation Xrotation Yrotation
									JOINT LeftHandIndex2
									{
										OFFSET	 0.000000	 0.000000	 0.047236
										CHANNELS 3 Zrotation Xrotation Yrotation
										JOINT LeftHandIndex3
										{
											OFFSET	-0.004284	-0.000551	 0.038166
											CHANNELS 3 Zrotation Xrotation Yrotation
											End Site
											{
												OFFSET	-0.004284	-0.000551	 0.038166
											}
										}
									}
								}
							}
						}
					}
				}
				JOINT Neck
				{
					OFFSET	 0.000000	 0.000000	 0.176489
					CHANNELS 3 Zrotation Xrotation Yrotation
					JOINT Head
					{
						OFFSET	 0.000000	-0.001747	 0.077940
						CHANNELS 3 Zrotation Xrotation Yrotation
						End Site
						{
							OFFSET	 0.000000	-0.001747	 0.077940
						}
					}
				}
				JOINT RightShoulder
				{
					OFFSET	-0.080363	 0.000306	 0.159706
					CHANNELS 3 Zrotation Xrotation Yrotation
					JOINT RightArm
					{
						OFFSET	 0.000000	 0.000000	 0.164196
						CHANNELS 3 Zrotation Xrotation Yrotation
						JOINT RightForeArm
						{
							OFFSET	 0.000000	 0.000000	 0.365611
							CHANNELS 3 Zrotation Xrotation Yrotation
							JOINT RightHand
							{
								OFFSET	 0.000000	 0.000000	 0.360648
								CHANNELS 3 Zrotation Xrotation Yrotation
								JOINT RightHandIndex1
								{
									OFFSET	 0.000000	 0.000000	 0.069977
									CHANNELS 3 Zrotation Xrotation Yrotation
									JOINT RightHandIndex2
									{
										OFFSET	 0.000000	 0.000000	 0.052305
										CHANNELS 3 Zrotation Xrotation Yrotation
										JOINT RightHandIndex3
										{
											OFFSET	 0.009002	-0.000782	 0.042196
											CHANNELS 3 Zrotation Xrotation Yrotation
											End Site
											{
												OFFSET	 0.009002	-0.000782	 0.042196
											}
										}
									}
								}
							}
						}
					}
				}
			}
		}
	}
}
MOTION
Frames:    13
Frame Time: 0.03333334
 0.142979	 2.865263	-0.008546	 5.110311	-2.095212	 0.067344	 6.439237	-1.956191	-178.423100	-2.540120	-35.302660	 1.210811	 15.255060	 89.893470	-14.280340	-2.376311	 30.398530	-0.042636	 1.638909	-29.915740	 179.478400	 20.284990	-72.169010	 23.725370	 178.885700	 89.111760	-171.523300	 2.378542	 29.680150	 0.028187	-2.958139	 4.390278	 1.366489	-4.084480	-1.793208	 0.864125	-3.576562	-4.428382	-0.373949	-91.795050	 78.131870	 178.892900	 35.646560	 63.446240	-47.605280	-8.974270	-4.231919	-29.530310	 4.051956	 2.134727	-5.365618	-3.812334	 37.924440	-2.927599	-2.450526	 36.184240	 0.754587	-1.378229	 35.397820	-2.634230	-0.320876	 4.051463	-1.913922	-0.445909	-11.860230	-1.645635	 89.792430	 78.695070	 179.518400	-41.801570	 71.371140	 43.754430	 1.690816	-7.576600	 25.822260	-13.780160	 1.000362	 9.573333	 6.437017	 35.671460	-0.771858	 2.830251	 35.756010	-7.813440	-2.350882	 35.473990	 5.254307
 0.150826	 2.814920	-0.011346	 5.339423	-1.729012	-0.564426	 6.002819	 2.145953	-177.423600	-3.075592	-31.574200	 0.944536	 18.088420	 89.817620	-17.482220	-2.375664	 30.518060	-0.045295	 1.990914	-32.721260	 179.744400	 13.708240	-65.153110	 16.713220	-174.805700	 88.933200	-177.524600	 2.377727	 29.842940	 0.031773	-3.038971	 4.298108	 2.088598	-4.242535	-1.871678	 0.811761	-3.608570	-4.514767	-0.379996	-91.773030	 78.585920	 178.789300	 35.065360	 62.218360	-48.718220	-8.674490	-4.485643	-31.270650	 4.204881	 2.148137	-5.367963	-3.812334	 37.924440	-2.927599	-2.450526	 36.184240	 0.754587	-1.378229	 35.397820	-2.634230	-0.360807	 4.180489	-2.391164	-0.328225	-12.195130	-1.443924	 89.783010	 78.241980	 179.462300	-41.655470	 71.504250	 42.897160	 1.902996	-7.688343	 26.838040	-13.487770	 1.008634	 9.578645	 6.437017	 35.671460	-0.771858	 2.830251	 35.756010	-7.813440	-2.350882	 35.473990	 5.254307
 0.156795	 2.771342	-0.013049	 5.486067	-1.353560	-0.822894	 6.113441	 6.293790	-177.009500	-3.440710	-26.793280	 1.018274	 8.994217	 89.248530	-8.218007	-2.370297	 31.463730	-0.066504	 2.212061	-34.345400	 179.746700	 10.362360	-58.192780	 12.785750	-163.325400	 89.317290	 171.332400	 2.383079	 28.739920	 0.007612	-3.048895	 4.138981	 2.402307	-4.298863	-1.926206	 0.783614	-3.629183	-4.548428	-0.383228	-91.761730	 78.788780	 178.756800	 34.706360	 61.305420	-49.596230	-8.648775	-4.500614	-32.329660	 4.036076	 2.130675	-5.364894	-3.812334	 37.924440	-2.927599	-2.450526	 36.184240	 0.754587	-1.378229	 35.397820	-2.634230	-0.356678	 4.306745	-2.696336	-0.286256	-12.416600	-1.399835	 89.778390	 78.043930	 179.447300	-41.574580	 71.662700	 42.449050	 2.029386	-7.712376	 27.162060	-13.375660	 1.011014	 9.580144	 6.437017	 35.671460	-0.771858	 2.830251	 35.756010	-7.813440	-2.350882	 35.473990	 5.254307
 0.162766	 2.721134	-0.014712	 5.637330	-0.883342	-1.012260	 6.990703	 11.997990	-176.939300	-3.710781	-19.155960	 1.376261	 4.874749	 86.966040	-2.906374	-2.358795	 33.259960	-0.107706	 2.628161	-35.272890	 179.702300	 7.653237	-50.239770	 9.549335	-144.635800	 89.574800	 152.832700	 2.388735	 27.416730	-0.020888	-2.983958	 3.844184	 2.610238	-4.264898	-2.033758	 0.794422	-3.584184	-4.557831	-0.378763	-91.755370	 78.899610	 178.748700	 34.390380	 60.601890	-50.368550	-8.644135	-4.507281	-32.974340	 3.934745	 2.136957	-5.366217	-3.812334	 37.924440	-2.927599	-2.450526	 36.184240	 0.754587	-1.378229	 35.397820	-2.634230	-0.264273	 4.398111	-2.980682	-0.214344	-12.543460	-1.360137	 89.775910	 77.934410	 179.456700	-41.441140	 71.911520	 42.146260	 2.084609	-7.668302	 26.837890	-13.446130	 1.007951	 9.578241	 6.437017	 35.671460	-0.771858	 2.830251	 35.756010	-7.813440	-2.350882	 35.473990	 5.254307
 0.168688	 2.670149	-0.017398	 5.896970	-0.770296	-1.236069	 8.253504	 18.257240	-176.775100	-4.056998	-11.620270	 1.567558	 3.511518	 84.067600	 0.324579	-2.337379	 36.035750	-0.174040	 3.093200	-35.857650	 179.774200	 5.152901	-43.331630	 6.876232	-156.322300	 89.480360	 164.052100	 2.381799	 29.015050	 0.013600	-2.946171	 3.646182	 2.771196	-4.215019	-2.107956	 0.837825	-3.495645	-4.544366	-0.368994	-91.752500	 78.943870	 178.729600	 34.345030	 60.288060	-51.106500	-8.675868	-4.502991	-33.008140	 3.921069	 2.137536	-5.366337	-3.812334	 37.924440	-2.927599	-2.450526	 36.184240	 0.754587	-1.378229	 35.397820	-2.634230	-0.152780	 4.374766	-3.186054	-0.099170	-12.491220	-1.236313	 89.774630	 77.890430	 179.433600	-41.286420	 72.226130	 42.046100	 1.990683	-7.545712	 25.745770	-13.754890	 0.998934	 9.572585	 6.437017	 35.671460	-0.771858	 2.830251	 35.756010	-7.813440	-2.350882	 35.473990	 5.254307
 0.172582	 2.617941	-0.019294	 6.363441	-0.862648	-1.291295	 8.313482	 20.851100	-177.449600	-3.650626	-11.611390	 1.633007	 4.085093	 84.029490	 0.062449	-2.307311	 39.163060	-0.253414	 3.225427	-35.545040	 179.704800	 3.364267	-38.761710	 5.087358	-171.435100	 89.154430	 178.367500	 2.371304	 31.026050	 0.058132	-3.045465	 3.762796	 2.634589	-4.243441	-2.133870	 0.838101	-3.424922	-4.518132	-0.360746	-91.756620	 78.864830	 178.698300	 34.837820	 60.326870	-52.106850	-8.639729	-4.498415	-32.381810	 4.022629	 2.131893	-5.365153	-3.812334	 37.924440	-2.927599	-2.450526	 36.184240	 0.754587	-1.378229	 35.397820	-2.634230	-0.110605	 4.254041	-3.246186	 0.015775	-12.288780	-0.988743	 89.775490	 77.963960	 179.340300	-40.860910	 72.633860	 41.722560	 1.894967	-7.376834	 24.327850	-14.178760	 0.985435	 9.563734	 6.437017	 35.671460	-0.771858	 2.830251	 35.756010	-7.813440	-2.350882	 35.473990	 5.254307
 0.176074	 2.561792	-0.021130	 6.841407	-0.959189	-1.254440	 8.472755	 23.591430	-178.473300	-2.809982	-11.592030	 1.766838	 4.967175	 82.946120	-0.109596	-2.268773	 42.377420	-0.341311	 3.078765	-34.790910	 179.472600	 2.960785	-37.306120	 4.571026	 177.414900	 89.224430	-170.813100	 2.368793	 31.455360	 0.067818	-3.145480	 3.754743	 2.369975	-4.272215	-2.089447	 0.784999	-3.381640	-4.447809	-0.354126	-91.761860	 78.767550	 178.658300	 35.615220	 60.759880	-52.818330	-8.537741	-4.483166	-31.076120	 4.237753	 2.147139	-5.367722	-3.812334	 37.924440	-2.927599	-2.450526	 36.184240	 0.754587	-1.378229	 35.397820	-2.634230	-0.109706	 4.166145	-3.232368	 0.093731	-12.016350	-0.635802	 89.777860	 78.062400	 179.295000	-39.919610	 73.123320	 40.718050	 1.847671	-7.176250	 22.849110	-14.623060	 0.969051	 9.552485	 6.437017	 35.671460	-0.771858	 2.830251	 35.756010	-7.813440	-2.350882	 35.473990	 5.254307
 0.178875	 2.499091	-0.023275	 7.253254	-1.124336	-1.137185	 8.865819	 26.404860	-179.847300	-1.951572	-11.569800	 1.908671	 5.561347	 80.414130	 0.152373	-2.207796	 46.377150	-0.462038	 2.872339	-33.626660	 179.008700	 4.033345	-38.608530	 5.333423	 15.207830	 89.423250	-8.058459	 2.376791	 30.021940	 0.035736	-3.145694	 3.328508	 2.097259	-4.215528	-1.994693	 0.671228	-3.313926	-4.287719	-0.342436	-91.763780	 78.729460	 178.612500	 36.573210	 61.594830	-53.010520	-8.467111	-4.383989	-29.126380	 4.442506	 2.140206	-5.366129	-3.812334	 37.924440	-2.927599	-2.450526	 36.184240	 0.754587	-1.378229	 35.397820	-2.634230	-0.055105	 4.235318	-3.280951	 0.170730	-11.708640	-0.111640	 89.779520	 78.110680	 179.340700	-38.491660	 73.597600	 38.923820	 1.737975	-6.937075	 21.346490	-15.053500	 0.950075	 9.538947	 6.437017	 35.671460	-0.771858	 2.830251	 35.756010	-7.813440	-2.350882	 35.473990	 5.254307
 0.181440	 2.430535	-0.024701	 7.843111	-1.488631	-0.900182	 9.479585	 29.113580	 178.365100	-1.118742	-11.548880	 2.033061	 5.644080	 75.532850	 1.043501	-2.143740	 49.689010	-0.574314	 2.177801	-32.064640	 178.115200	 6.479526	-41.352230	 6.993211	 7.488354	 86.936060	 0.685669	 2.388436	 27.490920	-0.019304	-3.198502	 2.838755	 1.620289	-4.147896	-1.859768	 0.510989	-3.204498	-4.032733	-0.324047	-91.770320	 78.618450	 178.553000	 37.587380	 62.863800	-52.451720	-8.372872	-4.293894	-27.000930	 4.744725	 2.136799	-5.364938	-3.812334	 37.924440	-2.927599	-2.450526	 36.184240	 0.754587	-1.378229	 35.397820	-2.634230	 0.012590	 4.444429	-3.193651	 0.284798	-11.332840	 0.387574	 89.782870	 78.229200	 179.363300	-36.514650	 73.973930	 36.319960	 1.603437	-6.657234	 19.897770	-15.403450	 0.928954	 9.523602	 6.437017	 35.671460	-0.771858	 2.830251	 35.756010	-7.813440	-2.350882	 35.473990	 5.254307
 0.184102	 2.364218	-0.023339	 8.439219	-2.044601	-0.841527	 9.505110	 30.271030	 177.132300	-1.444217	-13.233590	 1.937235	 4.983161	 68.601580	 1.115280	-2.119298	 50.785120	-0.614485	 1.624315	-30.538670	 177.580000	 7.089541	-44.271820	 7.562858	 6.315778	 84.737910	 1.486350	 2.397163	 24.957240	-0.072650	-3.192376	 2.608574	 1.298450	-4.038134	-1.712905	 0.442214	-3.062399	-3.757876	-0.302379	-91.777250	 78.510140	 178.529100	 38.325760	 64.461400	-51.263260	-8.406163	-4.233908	-25.015670	 5.134448	 2.115440	-5.359359	-3.812334	 37.924440	-2.927599	-2.450526	 36.184240	 0.754587	-1.378229	 35.397820	-2.634230	 0.133461	 4.507971	-3.108067	 0.399092	-10.787300	 0.732504	 89.785910	 78.344500	 179.369500	-34.901050	 74.156270	 34.228890	 1.470122	-6.380700	 18.680230	-15.627740	 0.904454	 9.506414	 6.437017	 35.671460	-0.771858	 2.830251	 35.756010	-7.813440	-2.350882	 35.473990	 5.254307
 0.182174	 2.307521	-0.017604	 9.010898	-2.350210	-1.460749	 7.506340	 21.428830	 176.687500	-0.881044	-32.664900	 1.941726	 3.370127	 65.397280	 0.274977	-2.161255	 48.852490	-0.544722	 1.348654	-28.692240	 177.696900	 7.221365	-46.401700	 7.816965	 6.075736	 84.648960	 1.354120	 2.404280	 21.780440	-0.137534	-3.082592	 2.293120	 1.865362	-3.982889	-1.610601	 0.555123	-2.961686	-3.464005	-0.284891	-91.763470	 78.718490	 178.499000	 38.043870	 66.232990	-49.039150	-8.592107	-4.246981	-23.214790	 5.716226	 2.091246	-5.351869	-3.812334	 37.924440	-2.927599	-2.450526	 36.184240	 0.754587	-1.378229	 35.397820	-2.634230	 0.231752	 4.350060	-3.383187	 0.518285	-10.030650	 0.882123	 89.780400	 78.138820	 179.375100	-34.023030	 74.142270	 33.174080	 1.185603	-6.189294	 17.737890	-15.894190	 0.885387	 9.490952	 6.437017	 35.671460	-0.771858	 2.830251	 35.756010	-7.813440	-2.350882	 35.473990	 5.254307
 0.181312	 2.248459	-0.011995	 9.984737	-2.995890	-0.517025	 7.559770	 14.834670	 173.909400	-1.060302	-47.465500	 1.197656	 2.083046	 58.741780	 0.596214	-2.273899	 41.987770	-0.330267	 0.552689	-24.932600	 176.303500	 7.769640	-46.532960	 7.644375	 6.230035	 85.670250	 1.049629	 2.407437	 18.651810	-0.199734	-3.335081	 2.709782	 0.743045	-4.023391	-1.504349	 0.353910	-2.928284	-3.304852	-0.277638	-91.791690	 78.285800	 178.521600	 37.030600	 67.991210	-46.307880	-9.148889	-4.181650	-21.636030	 6.102963	 2.068229	-5.344522	-3.812334	 37.924440	-2.927599	-2.450526	 36.184240	 0.754587	-1.378229	 35.397820	-2.634230	 0.189670	 3.830034	-3.045206	 0.522593	-9.148877	 0.856973	 89.793830	 78.560520	 179.242700	-33.828930	 73.914570	 33.081570	 0.974244	-6.155653	 17.522340	-15.990190	 0.883067	 9.489284	 6.437017	 35.671460	-0.771858	 2.830251	 35.756010	-7.813440	-2.350882	 35.473990	 5.254307
 0.180419	 2.191012	-0.006255	 11.012850	-3.482959	 1.761718	 6.978962	 7.543837	 170.583400	-2.121423	-60.503890	-1.197008	 0.098262	 55.108520	 1.398533	-2.331089	 36.750520	-0.191716	-0.240801	-20.481260	 173.654200	 8.286474	-44.834650	 6.979115	 6.193805	 86.390880	 0.948021	 2.407650	 16.982180	-0.232406	-3.686213	 3.251874	-1.693429	-4.005571	-1.465629	-0.139707	-2.951077	-3.346294	-0.280860	-91.840810	 77.409030	 178.619000	 35.990710	 69.351070	-43.869920	-9.993547	-3.963912	-20.467150	 5.957707	 2.046273	-5.339533	-3.812334	 37.924440	-2.927599	-2.450526	 36.184240	 0.754587	-1.378229	 35.397820	-2.634230	 0.125920	 3.334379	-2.159664	 0.357206	-8.676404	 0.613787	 89.827910	 79.423090	 179.164800	-34.269290	 73.441140	 33.945310	 0.962904	-6.228212	 18.001000	-15.774050	 0.895418	 9.499755	 6.437017	 35.671460	-0.771858	 2.830251	 35.756010	-7.813440	-2.350882	 35.473990	 5.254307
